<?xml version="1.0" encoding="iso-8859-1"?>
<svg version="1.1" width="100%" height="100%" id="Capa_1" xmlns="http://www.w3.org/2000/svg" xmlns:xlink="http://www.w3.org/1999/xlink" x="0px" y="0px"
	 viewBox="0 0 512 512" xml:space="preserve">
<g>
	<g>
		<path fill="#005fc9" d="M404.291,223.781c-12.316,0-24.152,2.084-35.184,5.907c-15.91-41.426-28.394-91.705-22.934-140.209
			c0.478-4.243-0.876-8.489-3.722-11.673c-2.846-3.184-6.914-5.004-11.184-5.004h-50.05c-8.284,0-15,6.716-15,15s6.716,15,15,15
			h7.576h20.34l-8.079,24.278l-39.687,119.266h-87.772c-0.458-0.355-0.917-0.711-1.381-1.059l-26.177-56.4
			c5.767-2.09,9.896-7.601,9.896-14.09c0-8.284-6.716-15-15-15H84.137c-8.284,0-15,6.716-15,15s6.716,15,15,15h29.25l16.88,36.369
			c-7.277-1.557-14.822-2.384-22.558-2.384C48.318,223.781,0,272.099,0,331.49s48.318,107.708,107.709,107.708
			c54.301,0,99.337-40.393,106.659-92.708h34.476c6.459,0,12.193-4.135,14.233-10.264l56.636-170.201
			c4.451,24.793,11.949,50.67,22.48,77.507c-27.575,19.525-45.611,51.674-45.611,87.958c0,59.391,48.318,107.708,107.708,107.708
			C463.682,439.199,512,390.881,512,331.49S463.682,223.781,404.291,223.781z M107.709,346.49h76.242
			c-7.01,35.694-38.525,62.708-76.242,62.708C64.86,409.199,30,374.339,30,331.49s34.86-77.709,77.709-77.709
			c37.717,0,69.231,27.015,76.242,62.709h-76.242c-8.284,0-15,6.716-15,15S99.425,346.49,107.709,346.49z M238.027,316.49h-23.659
			c-2.029-14.5-6.954-28.083-14.173-40.145h51.19L238.027,316.49z M404.291,409.199c-42.849,0-77.708-34.86-77.708-77.709
			c0-23.847,10.806-45.209,27.768-59.475c18.58,40.273,36.76,66.786,37.595,67.996c2.91,4.216,7.591,6.478,12.353,6.478
			c2.937,0,5.903-0.86,8.503-2.653c6.818-4.701,8.534-14.04,3.838-20.86c-0.384-0.558-18.126-26.653-35.871-65.546
			c7.424-2.363,15.325-3.648,23.522-3.648c42.849,0,77.709,34.86,77.709,77.709S447.14,409.199,404.291,409.199z"/>
	</g>
</g>
<g>
</g>
<g>
</g>
<g>
</g>
<g>
</g>
<g>
</g>
<g>
</g>
<g>
</g>
<g>
</g>
<g>
</g>
<g>
</g>
<g>
</g>
<g>
</g>
<g>
</g>
<g>
</g>
<g>
</g>
</svg>
